<?xml version="1.0" encoding="UTF-8"?>
<svg width="685px" height="729px" viewBox="0 0 685 729" version="1.1" xmlns="http://www.w3.org/2000/svg" xmlns:xlink="http://www.w3.org/1999/xlink">
    <title>Oval</title>
    <g id="Page-2" stroke="none" stroke-width="1" fill="none" fill-rule="evenodd" stroke-opacity="0.0693564248">
        <g id="app-icon-light" transform="translate(-169, -147)" fill="#F1D820" stroke="#4A310D" stroke-width="13">
            <path d="M288.929643,174.740942 C344.838512,151.710518 435.999777,148.520559 503.467844,159.708833 C633.213297,181.224606 752.375055,261.055657 810.452303,373.869835 C834.017641,419.645149 847.5,470.851863 847.5,525.769996 C847.5,599.703632 817.722122,664.132227 784.616527,724.267032 C765.520881,758.953404 738.63047,787.582581 706.611393,809.982013 C650.328792,849.355363 578.244657,869.5 504.531221,869.5 C401.439932,869.5 313.494031,820.316904 250.644748,748.185995 C198.233242,688.034322 166.292154,611.918385 178.25327,526.673191 C181.564616,503.073691 194.920978,474.126012 209.811865,443.461138 L210.817973,441.391283 C211.658173,439.664305 212.502613,437.932164 213.349783,436.195505 L214.367601,434.109386 L215.387461,432.019177 C246.180356,368.900926 277.342913,301.528745 251.370104,256.64262 C240.847676,238.457793 239.180085,222.945308 244.989652,209.935147 C251.732874,194.834122 267.838932,183.428794 288.929643,174.740942 Z" id="Oval"></path>
        </g>
    </g>
</svg>